/* XPM */
static char *result[] = {
/* columns rows colors chars-per-pixel */
"64 64 49 1 ",
"  c #494949",
". c gray29",
"X c #4A4A49",
"o c #4D4744",
"O c #4B4B4B",
"+ c #4C4C4C",
"@ c #515150",
"# c #555554",
"$ c #595958",
"% c #5A5A59",
"& c #575756",
"* c #535352",
"= c gray32",
"- c #555555",
"; c #545453",
": c #585857",
"> c gray31",
", c #4D4D4C",
"< c #4E4E4E",
"1 c #5F5F5E",
"2 c #666664",
"3 c #686866",
"4 c #626260",
"5 c #5B5B5A",
"6 c #676765",
"7 c #5C5C5B",
"8 c #646462",
"9 c #656564",
"0 c #5E5E5D",
"q c gray33",
"w c #61615F",
"e c #60605F",
"r c #5E5E5C",
"t c #5D5D5C",
"y c #60605E",
"u c #636362",
"i c #525251",
"p c #50504F",
"a c #565655",
"s c #535353",
"d c gray30",
"f c #515151",
"g c #585858",
"h c #505050",
"j c #565656",
"k c #4E4E4D",
"l c gray35",
"z c #4C4C4B",
"x c gray34",
/* pixels */
"   .....................................XXXX.....XX....XXXXXX  o",
"O+@#$%%%%%%%%%%%%%%%%%%%%%%%%%%%%%%%%%&*====&%%%-==;:$#======>.o",
",<:1233333333333333333333333333333333345%%%%43361%%7890%%%%%%qOo",
",@04weeeeeeeeeeeeeeeeeeeeeeeeeeeeeeeeer%%%%%teey7%%5017%%%%%%qOo",
",*u87%%%%%%%%%%%%%%%%%%%%%%%%%%%%%%%%%%%%%%%%%%%%%%%%%%%%%%%%qOo",
",*u87%%%%%%%%%%%%%%%%%%%%%%%%%%%%%%%%%%%%%%%%%%%%%%%%%%%%%%%%qOo",
",*u87%%%%%%%%%%%%%%%%%%%%%%%%%%%%%%%%%%%%%%%%%%%%%%%%%%%%%%%%qOo",
",*u87%%%%%%%%%%%%%%%%%%%%%%%%%%%%%%%%%%%%%%%%%%%%%%%%%%%%%%%%qOo",
",*u87%%%%%%%%%%%%%%%%%%%%%%%%%%%%%%%%%%%%%%%%%%%%%%%%%%%%%%%%qOo",
",*u87%%%%%%%%%%%%%%%%%%%%%%%%%%%%%%%%%%%%%%%%%%%%%%%%%%%%%%%%qOo",
",*u87%%%%%%%%%%%%%%%%%%%%%%%%%%%%%%%%%%%%%%%%%%%%%%%%%%%%%%%%qOo",
",*u87%%%%%%%%%%%%%%%%%%%%%%%%%%%%%%%%%%%%%%%%%%%%%%%%%%%%%%%%qOo",
",*u87%%%%%%%%%%%%%%%%:&$%%%%%%%%%%%%%%%%%%%%%%%%%%%%%%%%%%%%%qOo",
",*u87%%%%%%%%%%%%%%%:ipa%%%%%%%%%%%%%%%%%%%%%%%%%%%%%%%%%%%%%qOo",
",*u87%%%%%%%%%%%%%%%:i>a%%%%%%%%%%%%%%%%%%:aaaaa:%%%%%%%%%%%%qOo",
",*u87%%%%%%%%%%%%%%%$&&$%%%%%%%%%%%%%%%%%%sdddd<#%%%%%%%%%%%%qOo",
",*u87%%%%%%%%%%%%%%%%%%%%%%%%%%%%%%%%%%%%%f    Os%%%%%%%%%%%%qOo",
",*u87%%%%%%%%%%%%%%%%%%%%%%%%%%%%%%%%%%%%%f    Os%%%%%%%%%%%%qOo",
",*u87%%%%%%%%%%%%%%%%%%%%%%%%%%%%%%%%%%%%%;<<<<>-%%%%%%%%%%%%qOo",
",*u87%%%%%%%%%%%%%%%%%%%%%%%%%%%%%%%%%%%%%g&&&&&$%%%%%%%%%%%%qOo",
",*u87%%%%%%%%%%%%%%%%%%%%%%%%%%%%%%%%%%%%%%%%%%%%%%%%%%%%%%%%qOo",
",*u87%%%%%%%%%%%%%%%%%%%%%%%%%%%%%%%%%%%%%%%%%%%%%%%%%%%%%%%%qOo",
",*u87%%%%%%%%%%%%%%%%%%%%%%%%%%%%%%%%%%%%%%%%%%%%%%%%%%%%%%%%qOo",
",*u87%%%%%%%%%%%%%%%%%%%%%%%%%%%%%%%%%%%%%%%%%%%%%%%%%%%%%%%%qOo",
",*u87%%%%%%%%%%%%%%%%%%%%%%%%%%%%%%%%%%%%%%%%%%%%%%%%%%%%%%%%qOo",
",*u87%%%%%%%%%%%%%%%%%%%%%%%%%%%%%%%%%%%%%%%%%%%%%%%%%%%%%%%%qOo",
",*u87%%%%%%%%%%%%%%%%%%%%%%%%%%%%%%%%%%%%%%%%%%%%%%%%%%%%%%%%qOo",
",*u87%%%%%%%%%%%%%%%%%%%%%%%%%%%%%%%%%%%%%%%%%%%%%%%%%%%%%%%%qOo",
",*u87%%%%%%%%%%%%%%%%%%%%%%%%%%%%%%%%%%%%%%%%%%%%%%%%%%%%%%%%qOo",
",*u87%%%%%%%%%%%%%%%%%%%%%%%%%%%%%%%%%%%%%%%%%%%%%%%%%%%%%%%%qOo",
",*u87%%%%%%%%%%%%%%%%%%%%%%%%%%%%%%%%%%%%%%%%%%%%%%%%%%%%%%%%qOo",
",*u87%%%%%%%%%%%%%%%%%%%%%%%%%%%%%%%%%%%%%%%%%%%%%%%%%%%%%%%%qOo",
",*u87%%%%%%%%%%%$#=&%%%%%%%%%%%%%%%%%%%%%%%%%%%%%%%%%%%%%%%%%qOo",
",*u87%%%%%%%%%%%$hO;%%%%%%%%%%%%%%%%%%%%%%%%%%%%%%%%%%%%%%%%%qOo",
",*u87%%%%%%%%%%%%a*&%%%%%%%%%%%%%%%%%%%%%%%%%%%%%%%%%%%%%%%%%qOo",
",*u87%%%%%%%%%%%%%%%%%%%%%%%%%%%%%%%%%%%%%%%%%%%%%%%%%%%%%%%%qOo",
",*u87%%%%%%%%%%%%%%%%%%%%%%%%%%%%%%%%%%%%%%%%%%%%%%%%%%%%%%%%qOo",
",*u87%%%%%%%%%%%%%%%%%%%%%%%%%%%%%%%%%%%%%%%%%%%%%%%%%%%%%%%%qOo",
",*u87%%%%%%%%%%%%%%%%%%%%%%%%%%%%%%%%%%%%%%%%%%%%%%%%%%%%%%%%qOo",
",*u87%%%%%%%%%%%%%%%%%%%%%%%%%%%%%%%%%%%%%%%%%%%%%%%%%%%%%%%%qOo",
",*u87%%%%%%%%%%%%%%%%%%%%%%%%%%%%%%%%%%%%%%%%%%%%%%%%%%%%%%%%qOo",
",*u87%%%%%%%%%%%%%%%%%%%%%%%%%%%%%%%%%%%%%%%%%%%%%%%%%%%%%%%%qOo",
",*u87%%%%%%%%%%%%%%%%%%%%%%%%%%%%%%%%%%%%%%%%%%%%%%%%%%%%%%%%qOo",
",*u87%%%%%%%%%%%%%%%%%%%%%%%%%%%%%%%%%%%%%%%%%%%%%%%%%%%%%%%%qOo",
",*u87%%%%%%%%%%%%%%%%%%%%%%%%%%%%%%%%%%%%%%%%%%%%%%%%%%%%%%%%qOo",
",*u87%%%%%%%%%%%%%%%%%%%%%%%%%%%%%$&jj:%%%%%%%%%%%%%%%%%%%%%%qOo",
",*u87%%%%%%%%%%%%%%%%%%%%%%%%%%%%%->kksl%%%%%%%%%%%%%%%%%%%%%qOo",
",*u87%%%%%%%%%%%%%%%%%%%%%%%%%%%%%;O  @$%%%%%%%%%%%%%%%%%%%%%qOo",
",*u87%%%%%%%%%%%%%%%%%%%%%%%%%%%%%;O  @$%%%%%%%%%%%%%%%%%%%%%qOo",
",*u87%%%%%%%%%%%%%%%%%%%%%%%%%%%%%->kksl%%%%%%%%%%%%%%%%%%%%%qOo",
",*u87%%%%%%%%%%%%%%%%%%%%%%%%%%%%%$&jj:%%%%%%%%%%%%%%%%%%%%%%qOo",
",*u87%%%%%%%%%%%%%%%%%%%%%%%%%%%%%%%%%%%%%%%%%%%%%%%%%%%%%%%%qOo",
",*u87%%%%%%%%%%%%%%%%%%%%%%%%%%%%%%%%%%%%%%%%%%%%%%%%%%%%%%%%qOo",
",*u87%%%%%%%%%%%%%%%%%%%%%%%%%%%%%%%%%%%%%%%%%%%%%%%%%%%%%%%%qOo",
",*u87%%%%%%%%%%%%%%%%%%%%%%%%%%%%%%%%%%%%%%%%%%%%%%%%%%%%%%%%qOo",
",*u87%%%%%%%%%%%%%%%%%%%%%%%%%%%%%%%%%%%%%%%%%%%%%%%%%%%%%%%%qOo",
",*u87%%%%%%%%%%%%%%%%%%%%%%%%%%%%%%%%%%%%%%%%%%%%%%%%%%%%%%%%qOo",
",*u87%%%%%%%%%%%%%%%%%%%%%%%%%%%%%%%%%%%%%%%%%%%%%%%%%%%%%%%%qOo",
",*u87%%%%%%%%%%%%%%%%%%%%%%%%%%%%%%%%%%%%%%%%%%%%%%%%%%%%%%%%qOo",
",*u87%%%%%%%%%%%%%%%%%%%%%%%%%%%%%%%%%%%%%%%%%%%%%%%%%%%%%%%%qOo",
",*u87%%%%%%%%%%%%%%%%%%%%%%%%%%%%%%%%%%%%%%%%%%%%%%%%%%%%%%%%qOo",
"O<&:s========================================================>.o",
"  ...XXXXXXXXXXXXXXXXXXXXXXXXXXXXXXXXXXXXXXXXXXXXXXXXXXXXXXXX  o",
"Ozp;x$$$$$$$$$$$$$$$$$$$$$$$$$$$$$$$$$-iffff#$$:;ff=a&sffffff<.o"
};
