/* XPM */
static char *a9916deff4874620de686f35a0c0cbf7ym6dWXZpCL1anz7D[] = {
/* columns rows colors chars-per-pixel */
"64 64 165 2 ",
"   c None",
".  c #353637",
"X  c #373839",
"o  c #373A3D",
"O  c #3A3B3C",
"+  c #3D4348",
"@  c #3D4349",
"#  c #3F4449",
"$  c #414243",
"%  c #464747",
"&  c #484949",
"*  c #48494A",
"=  c #4C4C4C",
"-  c gray31",
";  c #4A4E53",
":  c gray32",
">  c gray33",
",  c gray34",
"<  c #585858",
"1  c #5A5A5B",
"2  c #5B5B5B",
"3  c gray37",
"4  c #495964",
"5  c #4C5F6C",
"6  c #4D5F6C",
"7  c #525D69",
"8  c #52616E",
"9  c #57626E",
"0  c #5E6369",
"q  c #566370",
"w  c gray38",
"e  c #656565",
"r  c #676767",
"t  c #686868",
"y  c #6A6A6A",
"u  c gray42",
"i  c #6C6C6C",
"p  c #626D78",
"a  c #626E7B",
"s  c #65707B",
"d  c #68727E",
"f  c gray44",
"g  c #717171",
"h  c #767676",
"j  c #73777C",
"k  c #797979",
"l  c #7B7B7B",
"z  c gray49",
"x  c #6A7682",
"c  c #767F89",
"v  c #738394",
"b  c #728395",
"n  c #738496",
"m  c #72A1C3",
"M  c #73A3C6",
"N  c #73A4C6",
"B  c #7CB4DB",
"V  c #7EB5DC",
"C  c #7DB6DE",
"Z  c #7EB6DE",
"A  c #7EB7DE",
"S  c #7EB7DF",
"D  c #7FB7DF",
"F  c #818282",
"G  c #828283",
"H  c #838383",
"J  c #848585",
"K  c #868686",
"L  c gray53",
"P  c #888888",
"I  c #898989",
"U  c gray54",
"Y  c gray55",
"T  c #8D8D8D",
"R  c #8E8E8E",
"E  c gray56",
"W  c gray57",
"Q  c #929292",
"!  c gray61",
"~  c gray62",
"^  c #9F9F9F",
"/  c #A0A0A0",
"(  c #A2A2A2",
")  c gray64",
"_  c #A5A5A5",
"`  c #A7A7A7",
"'  c #A9A9A9",
"]  c #AAAAAA",
"[  c #ACACAC",
"{  c gray68",
"}  c #ADADAE",
"|  c #B0B0B1",
" . c #B1B1B1",
".. c #B2B2B2",
"X. c gray70",
"o. c #B4B4B4",
"O. c #B7B7B7",
"+. c gray72",
"@. c #B9B9B9",
"#. c gray73",
"$. c #BCBCBC",
"%. c gray74",
"&. c #BDBEBF",
"*. c gray75",
"=. c #88A8C7",
"-. c #87AACC",
";. c #80B7DF",
":. c #82B8DF",
">. c #93B8DC",
",. c #93B8DD",
"<. c #94B9DD",
"1. c #94B9DE",
"2. c #95B9DE",
"3. c #81B8E0",
"4. c #82B8E0",
"5. c #83B8E0",
"6. c #83B9E0",
"7. c #87BAE1",
"8. c #88BAE2",
"9. c #8ABBE2",
"0. c #8BBBE2",
"q. c #8BBBE3",
"w. c #8FBBE1",
"e. c #8CBBE3",
"r. c #8CBCE3",
"t. c #8DBCE3",
"y. c #8EBCE3",
"u. c #8FBCE3",
"i. c #8DBCE4",
"p. c #8FBCE4",
"a. c #8FBDE4",
"s. c #96BDE3",
"d. c #97BDE3",
"f. c #91BDE4",
"g. c #92BEE5",
"h. c #93BEE5",
"j. c #94BEE5",
"k. c #95BEE5",
"l. c #96BEE5",
"z. c #96BFE6",
"x. c #97BFE6",
"c. c #98BFE6",
"v. c #C1C1C1",
"b. c gray76",
"n. c gray77",
"m. c #C5C5C5",
"M. c #C6C6C6",
"N. c #C8C8C8",
"B. c gray79",
"V. c #CACACA",
"C. c #CBCBCB",
"Z. c #CDCDCD",
"A. c #D0D0D0",
"S. c gray82",
"D. c #D2D2D2",
"F. c LightGray",
"G. c gainsboro",
"H. c gray87",
"J. c #E1E1E1",
"K. c #E2E2E2",
"L. c gray89",
"P. c gray90",
"I. c #E6E6E6",
"U. c #E7E7E7",
"Y. c #E7E8E8",
/* pixels */
"                                                                                                                                ",
"                                                                                                                                ",
"                                                                                                                                ",
"                                                                                                                                ",
"                                                                                                                                ",
"                                                                                                                                ",
"                                                                                                                                ",
"                                                                                                                                ",
"                                                                                                                                ",
"                                                                                                                                ",
"                                                                                                                                ",
"                                                                                                                                ",
"                n.#.#.#.#.#.#.#.#.#.#.#.#.#.#.#.#.#.#.#.#.O.{ | #.#.#.#.#.#.#.#.#.#.#.#.#.#.#.#.#.#.#.#.#.n.S.I.                ",
"                h 3 3 3 3 3 3 3 3 3 3 3 3 3 3 3 3 3 3 3 3 , $ * 1 3 3 3 3 3 3 3 3 3 3 3 3 3 3 3 3 3 3 3 3 k W b.                ",
"            N.&.c d d d d d d d d d d d d d d d d d d d d p 7 9 a d d d d d d d d d d d d d d d d d d d d j l ` H.I.            ",
"          Y.% ; =.2.2.2.2.2.2.2.2.2.2.2.2.2.2.2.2.2.2.2.2.2.,.,.2.2.2.2.2.2.2.2.2.2.2.2.2.2.2.2.2.2.2.2.2.v 1 g W '             ",
"          I.O # -.x.x.c.c.c.c.c.c.c.c.c.c.c.c.c.c.c.c.c.c.c.c.c.c.c.c.c.c.c.c.c.c.c.c.c.c.c.c.c.c.c.c.c.c.n > i U )             ",
"          I.O @ N ;.f.c.c.c.c.c.c.c.c.c.c.c.c.c.c.c.c.c.c.c.c.c.c.c.c.c.c.c.c.c.c.c.c.c.c.c.c.c.c.c.c.c.c.n > i U )             ",
"          I.O @ M C y.x.x.c.c.c.c.c.c.c.c.c.c.c.c.c.c.c.c.c.c.c.c.c.c.c.c.c.c.c.c.c.c.c.c.c.c.c.c.c.c.c.c.n > i U )             ",
"          I.O @ M C C :.i.c.c.c.c.c.c.c.c.c.c.c.c.c.c.c.c.c.c.c.c.c.c.c.c.c.c.c.c.c.c.c.c.c.c.c.c.c.c.c.c.n > i U )             ",
"          I.O @ M C C C i.c.c.c.c.c.c.c.c.c.c.c.c.c.c.c.c.c.c.c.c.c.c.c.c.c.c.c.c.c.c.c.c.c.c.c.c.c.c.c.c.n > i U )             ",
"          I.O @ M C C C :.4.y.x.c.c.c.c.c.c.c.c.c.c.c.c.c.c.c.c.c.c.c.c.c.c.c.c.c.c.c.c.c.c.c.c.c.c.c.c.c.n > i U )             ",
"          I.O @ M C C C C C 0.x.c.c.x.c.c.c.c.c.c.c.c.c.c.c.c.c.c.c.c.c.c.c.c.c.c.c.c.c.c.c.c.c.c.c.c.c.c.n > i U )             ",
"          I.O @ M C C C C C 4.7.7.0.y.c.c.c.c.c.c.c.c.c.c.c.c.c.c.c.c.c.c.c.c.c.c.c.c.c.c.c.c.c.c.c.c.c.c.n > i U )             ",
"          I.O @ M C C C C C C C C C 4.x.c.c.c.x.x.c.c.c.c.c.c.c.c.c.c.c.c.c.c.c.c.c.c.c.c.c.c.c.c.c.c.c.c.n > i U )             ",
"          I.O @ M C C C C C C C C C C y.q.q.i.x.c.c.c.c.c.c.c.c.c.c.c.c.c.c.c.c.c.c.c.c.c.c.c.c.c.c.c.c.c.n > i U )             ",
"          I.O @ M C C C C C C C C C C C C C C x.c.x.c.c.c.c.c.c.c.c.c.c.c.c.c.c.c.c.c.c.c.c.c.c.c.c.c.c.c.n > i U )             ",
"          I.O @ M C C C C C C C C C C C C C C e.i.y.y.x.c.c.c.c.c.c.c.c.c.c.c.c.c.c.c.c.c.c.c.c.c.c.c.c.c.n > i U )             ",
"          I.O @ M C C C C C C C C C C C C C C C C ;.C y.c.c.c.c.x.x.c.x.c.c.c.c.c.c.c.c.c.c.c.c.c.c.c.c.c.n > i U )             ",
"          I.O @ M C C C C C C C C C C C C C C C C C C 0.f.x.f.x.s.x.x.x.c.c.c.c.c.c.c.c.c.c.c.c.c.c.c.c.c.n > i U )             ",
"          I.O @ M C C C C C C C C C C C C C C C C C C C C A A D C 4.x.x.x.x.c.c.x.c.c.c.c.c.c.c.c.c.c.c.c.n > i U )             ",
"          I.O @ M C C C C C C C C C C C C C C C C C C C C C C C C 4.y.x.s.h.x.x.x.c.c.c.c.c.c.c.c.c.c.c.c.n > i U )             ",
"          I.O # N C C C C C C C C C C C C C C C C C C C C C C C C C ;.;.;.;.;.;.0.x.c.c.c.c.c.c.c.c.c.c.c.n > i U )             ",
"          I.O # M C C C C C C C C C C C C C C C C C C C C C C C C C C C C C C C 0.c.c.c.c.c.c.c.c.c.c.c.c.n > u U )             ",
"          I.O # M C C C C C C C C C C C C C C C C C C C C C C C C C C C C C C C ;.4.4.4.4.;.:.4.;.h.c.c.c.n > i U )             ",
"          I.X @ m B B B B B B B B B B B B B B B B B B B B B B B B B B B B B B B B B B B C B B B B f.s.d.x.n > i U )             ",
"          I.O o 4 5 5 5 5 5 5 5 5 5 5 5 6 6 6 6 5 5 5 5 6 6 6 6 5 5 5 5 5 5 5 5 5 5 5 5 5 5 5 5 6 9 q a x e > i U )             ",
"          I.O . . . . . . . . . . . . . . . . . . . . . . . . . . . . . . . . . . . . . . . . . . . X & > > > i U )             ",
"            K F F F F F F F F F F F F F F F F F F F F F F F F F F F F F F F F F F F F F F F F F F F F U E E E R U )             ",
"            v.*.*.&.v.&.*.*.*.*.*.*.*.&.*.*.*.*.&.v.&.&.*.*.*.*.*.*.*.*.*.*.*.&.*.*.*.*.*.*.*.*.&.&.*.*.&.&.&.' U )             ",
"            b.&.*.*.*.*.*.*.*.*.*.*.*.*.*.*.*.*.*.*.*.*.*.o.W ! #.*.*.*.*.*.*.*.*.*.*.*.*.*.*.*.*.*.*.*.*.*.b.' U )             ",
"            b.*.*.*.*.*.*.*.*.*.*.*.*.*.*.*.*.*.*.*.*.*.*.) = t  .*.*.*.*.*.*.*.*.*.*.*.*.*.*.*.*.*.*.*.*.&.&.' U )             ",
"            A.Z.b.*.*.*.*.*.*.*.*.*.*.*.*.*.*.*.*.*.*.*.*.' t z o.*.*.*.*.*.*.*.*.*.*.*.*.*.*.*.*.*.*.*.*.+. .{ ` #.            ",
"                N.*.*.*.*.*.*.*.*.*.*.*.*.*.*.*.*.*.*.*.*.*.*.*.*.*.*.*.*.*.*.*.*.*.*.*.*.*.*.*.*.*.*.*.v./ U b.                ",
"                S.Z.N.Z.C.C.C.C.C.C.C.C.C.C.C.C.C.#. . . . . . . . . . .[ [ &.N.C.C.C.C.C.C.C.C.C.C.C.C.N.o./ N.                ",
"                                                  ^ g g g g f f g g g f < 2 {                                                   ",
"                                                  ^ u u u u u u u u u y - : [                                                   ",
"                                                   .L L L L L L L L L K w w o.                                                  ",
"                                                  o.R R R R R R R R U U e e o.                                                  ",
"              Y.U.U.U.U.U.U.U.U.Y.I.U.U.L.S.C.N.N.#.[ { [ [ [ [ ' _ U H k l  .U.U.U.U.U.U.U.U.U.U.U.U.U.U.U.U.U.U.              ",
"            J.J.J.J.J.J.J.J.J.J.J.J.J.J.H.n.&.$.&.$.&.$.$.&.$.&.&.o.W U U R #.J.J.J.J.J.J.J.J.J.J.J.J.J.J.J.J.J.J.U.            ",
"                                            I.I.P.P.P.I.P.P.I.I.I.J.F.S.Z.S.J.                                                  ",
"                                                                                                                                ",
"                                                                                                                                ",
"                                                                                                                                ",
"                                                                                                                                ",
"                                                                                                                                ",
"                                                                                                                                ",
"                                                                                                                                ",
"                                                                                                                                ",
"                                                                                                                                ",
"                                                                                                                                ",
"                                                                                                                                ",
"                                                                                                                                "
};
