/* XPM */
static char *a56749f074534a8f83163798b3321c3eENVucEjYNHcHczxZ[] = {
/* columns rows colors chars-per-pixel */
"64 64 228 2 ",
"   c None",
".  c #331D37",
"X  c #383539",
"o  c #372330",
"O  c #592A1D",
"+  c #63281C",
"@  c #782410",
"#  c #492829",
"$  c #572D27",
"%  c #52332D",
"&  c #473A36",
"*  c #523B35",
"=  c #4A3231",
"-  c #722D3C",
";  c #761C1D",
":  c #46443A",
">  c #4A463C",
",  c #4A493E",
"<  c #52433D",
"1  c #161676",
"2  c #2E1B6F",
"3  c #291950",
"4  c #511B4B",
"5  c #681848",
"6  c #681251",
"7  c #482F4A",
"8  c #4C1B76",
"9  c #4B3E77",
"0  c #7E2665",
"q  c #7F205B",
"w  c #4C4B42",
"e  c #4A4847",
"r  c #524C44",
"t  c #544C47",
"y  c #54524C",
"u  c #59544B",
"i  c #4A4D51",
"p  c #474D52",
"a  c #4D5155",
"s  c #4F5358",
"d  c #565552",
"f  c #5A5752",
"g  c #5B5A54",
"h  c #5D5C5B",
"j  c #545859",
"k  c #4F5044",
"l  c #615D58",
"z  c #705350",
"x  c #5E6258",
"c  c #63625C",
"v  c #69685A",
"b  c #71725D",
"n  c #5C5E62",
"m  c #584979",
"M  c #544B77",
"N  c #625972",
"B  c #5E636A",
"V  c #656462",
"C  c #696663",
"Z  c #6A6A65",
"A  c #6D6D6A",
"S  c #656869",
"D  c #716867",
"F  c #6D7267",
"G  c #72726D",
"H  c #767866",
"J  c #6D6A71",
"K  c #6E7171",
"L  c #6F727A",
"P  c #747572",
"I  c #777974",
"U  c #797B75",
"Y  c #7A7D7A",
"T  c #77797A",
"R  c #981D06",
"E  c #991D16",
"W  c #BA1C06",
"Q  c #BB1E15",
"!  c #A91C08",
"~  c #942719",
"^  c #BA260A",
"/  c #B72A12",
"(  c #AE2C14",
")  c #881C35",
"_  c #8A312C",
"`  c #A9262C",
"'  c #C41B02",
"]  c #CC1D02",
"[  c #C51D0C",
"{  c #D31D01",
"}  c #D61C05",
"|  c #C82209",
" . c #D22002",
".. c #C52010",
"X. c #821E4D",
"o. c #8E2A4B",
"O. c #852B68",
"+. c #8B514C",
"@. c #857C77",
"#. c #837366",
"$. c #7F826B",
"%. c #7E827C",
"&. c #7E8374",
"*. c #85896D",
"=. c #8B8A6A",
"-. c #85856A",
";. c #828573",
":. c #858972",
">. c #81847C",
",. c #8B8A75",
"<. c #918E72",
"1. c #2F1893",
"2. c #3A2F90",
"3. c #1E0EB8",
"4. c #1C10B4",
"5. c #1A1BB5",
"6. c #260CAC",
"7. c #290AAB",
"8. c #2A0EA5",
"9. c #2616AD",
"0. c #230CBD",
"q. c #260BB7",
"w. c #2612B8",
"e. c #300BAC",
"r. c #0D21B6",
"t. c #2B2DB7",
"y. c #0C199C",
"u. c #441897",
"i. c #4A2EA2",
"p. c #4B468B",
"a. c #554D84",
"s. c #575383",
"d. c #4B4C90",
"f. c #7C7D81",
"g. c #4755A8",
"h. c #704281",
"j. c #1E07C2",
"k. c #1E0AC2",
"l. c #1C0DCA",
"z. c #1C0FD1",
"x. c #210BC1",
"c. c #220FCC",
"v. c #2513CC",
"b. c #2615C8",
"n. c #281AD7",
"m. c #301AC5",
"M. c #1529DB",
"N. c #0E29D2",
"B. c #2B28D9",
"V. c #3930D4",
"C. c #1D32EC",
"Z. c #1C2FED",
"A. c #342DE4",
"S. c #3338E8",
"D. c #263BFE",
"F. c #2B3EFF",
"G. c #2536F8",
"H. c #373AF7",
"J. c #2C26E2",
"K. c #4B37CF",
"L. c #413CED",
"P. c #2B42FF",
"I. c #2741FF",
"U. c #3344FE",
"Y. c #3E4CFF",
"T. c #3945F9",
"R. c #3647F1",
"E. c #2C40D1",
"W. c #444EFF",
"Q. c #4355FF",
"!. c #4659FF",
"~. c #4A4BD8",
"^. c #837F80",
"/. c #7C8486",
"(. c #828682",
"). c #858A85",
"_. c #868A8A",
"`. c #898C8B",
"'. c #888B87",
"]. c #8C908B",
"[. c #87928E",
"{. c #898F90",
"}. c #8B9695",
"|. c #929492",
" X c #939D9B",
".X c #999C9A",
"XX c #928F81",
"oX c #98A19D",
"OX c #A3A39C",
"+X c #889EA5",
"@X c #8EA2A5",
"#X c #95A5A3",
"$X c #9DA4A3",
"%X c #95A9A6",
"&X c #94AAAA",
"*X c #9AABA9",
"=X c #9CB0B0",
"-X c #A6ACA9",
";X c #A8B1AE",
":X c #B2B5AC",
">X c #ABB6B6",
",X c #B6BCB9",
"<X c #C1BFB3",
"1X c #B8C2BE",
"2X c #C5C5B8",
"3X c #BBC5C4",
"4X c #BDCBC9",
"5X c #B7C3C2",
"6X c #AFC1C3",
"7X c #C3CDCB",
"8X c #C9CEC9",
"9X c #C3C9C5",
"0X c #C4D1CE",
"qX c #CCD2CD",
"wX c #C6D3D1",
"eX c #CBD5D2",
"rX c #CEDAD5",
"tX c #D4DBD6",
"yX c #D2DDD9",
"uX c #D0D5CF",
"iX c #DBE2DD",
"pX c #DDE4E2",
"aX c #E3EAE5",
"sX c #E6ECE9",
"dX c #E9EEEA",
"fX c #E9EEEB",
"gX c #E3E8E4",
"hX c #EBF0EB",
/* pixels */
"                                        P P P L T T ).|.                                                                        ",
"                                        K K P L I T _.|.                                                                        ",
"                                        K K K P I %.]. X                                                                        ",
"                                        K G K K I >..X-X                                                                        ",
"                                7X.XV n S S K K T  X:X:XXX]._._.`.`.`.`._._._._.^.{.`.`.                                        ",
"                                qX9X%.s n B S K '.:X2X:X].(._.'.`.`.^.`._._._.`.`.`.{.{.                                        ",
"                                eXrX:Xn i j n S |.1X2X:X(.T /.'.{.`._.^._.`.`.`.`.`.|.OX                                        ",
"                                rXyXrX[.y i s n |.2X2XOX%.K T '..X$X|.|.`.{.{.|.$X;X<X8X                                        ",
"                        A f.$X3XrXyXyX1XS p p a A $X:X|.G B K ].,XtXtXuX8X9X8XqXtXpXgXgXsXiX8X:X                                ",
"                        S A (.;XeXyXyXqX Xs p p a S Y K n n S $XtXfXsXdXfXfXgXfXgXfXsXsXgX8X-X|.                                ",
"                        V V A _.1XyXyXyX3X/.i p i i s a s j A :XgXdXdXdXfXfXfXfXdXdXsXsXqXOX).@.                                ",
"                        c c V A  X7XyXyXeX:XL n s i i i s n ).8XgXfXfXfXfXfXfXfXdXdXsX8X|.D C Z                                 ",
"                        f l l h K .X3XwXeX3X;X X(.T K A P '.;XtXgXfXfXfXfXfXfXfXdXgX9X).l d h l                                 ",
"                        t f t f l A ).$X>X5X6X1X1X,X,X,X1X1X8XiXgXfXfXfXsXsXsXgXiX2XY d y u f l                                 ",
"                        7 t t t t f l A f.{.-X:X3X9X0XqXqXuXqXiXpXgXgXpXpXpXtX7X;X(.f y d d g l                                 ",
"                        < * t 7 r t u l l c D XXOX,X2X0X8XqX7XqXqXuXeXeX3X>X$X^.f.C f d f h l V                                 ",
"                        * * * > < < r t u z u b H XXOX:X:X:X>X>X=X-X$X|.{.f.T f.)./.A c v C C Z                                 ",
"                        % % % * * * < r < t u u v b #.#.@.U (.:.^.f.^.f.T (. X-X>X;X'.A A A A F                                 ",
"                        % % * % % * > * > , u g n c z +.z z z z D f._.|.-X5X4X0X7X9X-X%.G G G G                                 ",
"                        % % % % % & = X 7 9 p.g.g.g.N z - _ _ _ +.|.>X5X7X0XwXwXeXwX3X|.I P I G                                 ",
"                        $ % % # # o 2 1.t.E.R.R.T.R.~.N +.` ( ( +.*X6X4XwX0XwXwXwXwX4X$X>.I I G                                 ",
"                        % % % # . 1 r.M.C.I.I.I.F.U.Y.K.o.( ( ( o.>X5X4X0XwXwXwXwXwX4X-X).U G I                                 ",
"                        $ # # o 1 y.N.C.G.D.I.P.P.U.U.L.o.( / ( o.$X6X4X4XwXwXwXwX0X3X-X).U I I                                 ",
"                        $ O O o 1 r.N.Z.G.D.D.P.F.P.T.U.+./ ^ / _ {.>X6X4X0XwX0XwX4X,X$X(.I I P                                 ",
"                        $ $ O o 1 r.N.C.G.G.F.F.F.I.P.P.0 / / / _ ,.=X=X>X6X5X5X1X>X;X X>.&.I P                                 ",
"                        $ O O # 2 r.M.C.G.G.G.F.F.D.F.H.0 ^ / / ~ #.&X&X&X=X=X=X*X*X#X}.%.I I P                                 ",
"                        $ O + + 4 1.t.B.G.G.F.F.H.L.H.K.` ^ ^ ^ ~ #.oX&X&X&X*X*X%X%X X[.%.P P P                                 ",
"                        O + + @ ; 5 8 u.K.A.A.A.L.L.K.o.^ | | ^ ~ z @X@X&X&X*X%X%X%X X[.%.P P P                                 ",
"                        + + @ R ! R R E ) ) q q O.X.` W Q [ | ^ ~ K @X@X&X&X&X%X#X#X X).@.P P P                                 ",
"                        $ + @ ! ' ' ' ' W W W W Q Q W [ ' [ | Q _ L /.@X&X%X%X%X#X#X X%.P P G G                                 ",
"                        - $ ~ ! { ] ' ' ' ' ' ' [ ' ' ] ' | | Q ; A @X@X%X%X%X%X#X#X X/.P G P G                                 ",
"                        7 4 @ R ] { { { { { { { { ] } ] ]  .] / _ L @X@X%X%X%X%X#X#X|.@.P G P P                                 ",
"                        2 2 4 R  . .} } }  .}  .{ { { { { } [ / ; f.+X@X@X&X%X#X%X#X|.T P G A G                                 ",
"                        e.8.1.5 ^ } } } } } } } ] } { [ ......E - /.+X+X@X@X#X#X#X}.`.I G A A A                                 ",
"                        7.7.8.u.) ] } } } }  . .} ........Q Q E - /.+X X+X+X#X X}.}.(.P Z Z A A                                 ",
"                        7.7.8.e.u.O.` Q ` ` ) X.X.q 6 6 6 6 6 - N f./._.{.}.[././.P C l c Z A A                                 ",
"                        7.7.7.e.m.K.V.K.K.V.V.V.w.w.w.q.6.8.8.8 M T I A S h g u y e y u l C A D                                 ",
"                        7.7.7.7.n.U.U.T.Y.Y.W.B.v.0.0.0.0.0.q.9.m &.$.H g , : & & : e d V C A A                                 ",
"                        7.7.7.6.b.T.Y.Y.Y.Y.H.J.v.c.x.0.3.x.0.w.p.;.;.H Z f i w e t d V C A Z A                                 ",
"                        7.7.7.7.w.R.Y.Y.Y.Y.H.n.v.x.x.0.k.k.k.3.p.:.;.-.H Z V c V C C D A A A A                                 ",
"                        7.7.7.7.w.R.!.Y.Y.Y.R.n.v.x.x.j.j.j.k.4.p.;.*.;.H G A G A A A A A A A A                                 ",
"                        7.6.7.7.w.R.!.Y.!.Y.S.n.x.x.x.x.x.j.k.4.d.*.;.&.I G G G A A A A A A A A                                 ",
"                        8.7.6.7.w.S.!.!.Y.Y.S.n.x.x.j.x.j.j.k.3.a.*.*.;.&.F G A A A A A A A A A                                 ",
"                        7.7.6.7.w.S.!.Y.Y.Y.S.v.x.x.0.j.j.j.k.3.a.=.*.$.P A C C V c n V D Z A A                                 ",
"                        7.7.6.6.6.S.Q.Q.!.Y.R.b.x.x.x.x.k.j.k.4.a.:.*.$.F d i p e e e d C A A G                                 ",
"                        7.7.6.w.w.S.!.!.!.Y.S.b.x.x.0.x.j.k.k.4.s.=.*.$.V : X X X X X d V A A G                                 ",
"                        6.7.6.e.w.A.Q.Q.!.Y.A.b.x.x.3.k.k.j.k.4.s.=.=.$.x X X X X X y l A P G G                                 ",
"                        e.6.6.6.w.V.Q.!.!.Q.B.x.x.x.x.k.j.j.3.4.s.=.*.$.v X X X X d A P P P P P                                 ",
"                        7.6.w.e.w.B.!.!.!.W.n.b.0.x.x.x.x.j.k.4.a.=.:.;.H d i j Z P U Y U U P U                                 ",
"                        q.e.q.w.w.B.!.!.Q.R.v.x.x.x.x.0.k.k.k.4.a.*.:.;.U I G &.%.(.(.>.@.Y U U                                 ",
"                        e.q.w.0.x.B.W.!.W.A.x.x.x.x.0.j.k.k.k.4.a.*.;.&.&.%.%.).)._.'.).(.f.Y I                                 ",
"                        2.9.w.b.x.n.H.H.A.v.x.x.0.j.0.j.k.x.k.4.m ,.&.%.&.%.%.>.).`.`._.).>.U I                                 ",
"                        s.s.2.N.l.z.n.n.v.c.x.x.x.j.j.x.j.x.x.w.a.>.>.;.%.%.>.).'.].].'.).&.I I                                 ",
"                        $.$.&.d.5.j.l.l.x.x.x.x.x.x.x.x.x.x.x.9.m @.>.>.%.>.(.).'.].].'.).U I G                                 ",
"                        F F b G p.9.k.k.k.x.3.x.0.x.0.0.0.0.3.1.J %.%.%.%./.>.'.'.].].'./.I G G                                 ",
"                        x Z v v c M 9.6.q.0.0.3.0.x.0.0.3.6.1.9 U @.>.%.%.>.>.>.].].].'.U Z c v                                 ",
"                        x x x c v v n M 9 2.9 2 2.2.2.2.2.p.N I @.>.%.%.>.>.(.'.'.].].).H c g g                                 ",
"                        d d d x c v b #.H -.-.=.=.:.,.=.*.:.:.,.>.>.%.%.%.>.(.).`.`.].).F u u u                                 ",
"                        y d y d g c b b -.-.=.=.=.<.<.<.<.<.,.:.>.&.%.&.&.&.%.%.(.'.].>.v y y y                                 ",
"                        y y y y u u g g x v v b b b b F b b v v v c x g d d d g c G &.H c u k k                                 ",
"                                y i k y k k k k k w , , , , : : : : : : : : : : : , u c                                         ",
"                                y k k w , , , , , > , , : : : : : : : : : : : : : > w u                                         ",
"                                k e w , , , , : : : , : : : : : : : : : : : : : : : , k                                         ",
"                                e w w , : : : : : : : : : : : : : : : : X : : : : : , r                                         "
};
