/* XPM */
static char *f39bc95a0401418beebdea7e3eca791eoAJVxcjuzgmxcBme[] = {
/* columns rows colors chars-per-pixel */
"64 64 146 2 ",
"   c None",
".  c #0B0A0B",
"X  c #130D0F",
"o  c #0F0F10",
"O  c #110F11",
"+  c #0F1010",
"@  c #131213",
"#  c #181516",
"$  c #171718",
"%  c #1D1618",
"&  c #24272A",
"*  c #26292D",
"=  c #282B2F",
"-  c #2F2334",
";  c #2B2D32",
":  c #322537",
">  c #342739",
",  c #38273A",
"<  c #35293B",
"1  c #392C3E",
"2  c #2F3236",
"3  c #303238",
"4  c #3C2F41",
"5  c #3D3142",
"6  c #3E3554",
"7  c #422F42",
"8  c #403756",
"9  c #413857",
"0  c #423858",
"q  c #55495B",
"w  c #594C5E",
"e  c #5B4E61",
"r  c #5D5164",
"t  c #5A5E65",
"y  c #604F62",
"u  c #615567",
"i  c #635669",
"p  c #65596B",
"a  c #665772",
"s  c #675874",
"d  c #6A5A76",
"f  c #6E5E7A",
"g  c #725573",
"h  c #5B6067",
"j  c #5D6269",
"k  c #61666C",
"l  c #63686F",
"z  c #646A70",
"x  c #6F607C",
"c  c #71627E",
"v  c #C54B72",
"b  c #CB4E76",
"n  c #CE4F78",
"m  c #CE5178",
"M  c #D4517A",
"N  c #725E84",
"B  c #746284",
"V  c #766388",
"C  c #79668B",
"Z  c #7D6692",
"A  c #905F8E",
"S  c #92608F",
"D  c #826A96",
"F  c #846B99",
"G  c #946291",
"H  c #A17EA4",
"J  c #8D8E96",
"K  c #8E9097",
"L  c #8F9299",
"P  c #94949E",
"I  c #94969E",
"U  c #95979F",
"Y  c #94979F",
"T  c #96969F",
"R  c #94959D",
"E  c #9797A1",
"W  c #9696A1",
"Q  c #9797A0",
"!  c #9D97A1",
"~  c #9698A0",
"^  c #9798A1",
"/  c #9799A1",
"(  c #9798A0",
")  c #9898A2",
"_  c #9899A2",
"`  c #989AA2",
"'  c #999AA3",
"]  c #999BA3",
"[  c #9999A4",
"{  c #9A99A4",
"}  c #9A9BA5",
"|  c #9A9AA4",
" . c #9B9CA5",
".. c #9D9DA7",
"X. c #9D9DA6",
"o. c #9D9EA7",
"O. c #9A9BA4",
"+. c #9E9DA8",
"@. c #9F9FA9",
"#. c #9E9FA8",
"$. c #A481A7",
"%. c #A482A8",
"&. c #AC93AD",
"*. c #AD93AE",
"=. c #AA91AC",
"-. c #AF96B0",
";. c #B096B1",
":. c #B096B1",
">. c #B49AB5",
",. c #B49AB5",
"<. c #BE97BF",
"1. c #BE98BF",
"2. c #A0A0AA",
"3. c #BF9BC1",
"4. c #C09AC2",
"5. c #CAB8D2",
"6. c #CFB8D4",
"7. c #CCBBD4",
"8. c #CEBCD6",
"9. c #CEBDD6",
"0. c #CFBDD7",
"q. c #CDBBD5",
"w. c #CFBED8",
"e. c #D3BAD7",
"r. c #D4BBD8",
"t. c #D0BFD9",
"y. c #D6BEDA",
"u. c #D5BDDA",
"i. c #D8BFDC",
"p. c #D8BFDC",
"a. c #D0C0D9",
"s. c #D2C0DA",
"d. c #D2C1DB",
"f. c #D3C1DB",
"g. c #D3C3DC",
"h. c #D4C2DC",
"j. c #D4C3DC",
"k. c #D5C4DD",
"l. c #D6C4DE",
"z. c #D6C5DE",
"x. c #D6C5DF",
"c. c #D5C3DD",
"v. c #DAC1DE",
"b. c #DAC1DE",
"n. c #D8C6E0",
"m. c #D8C6E0",
/* pixels */
"                                                                                                                                ",
"                                                                                                                                ",
"                                                                                                                                ",
"                                                                                                                                ",
"                                                                                                                                ",
"                                                                                                                                ",
"                                                            @ . . . . . @                                                       ",
"                                                  @ . . . @ h h j j h h h . @                                                   ",
"                                                $ L j h h h < > > < > < < > t +                                                 ",
"                                              @ h l < < l / / l l j 5 j j < < - @                                               ",
"                                            @ : < l / ~ / / ` } ] ] / ] ~ l j < - @                                             ",
"                                          @ : j j ~  ./ < 4 l / ] / ] / l ~ / j < - @                                           ",
"                                        @ > j j j z ] / j j 4 l z z z j < < j ~ R < o                                           ",
"                                      @ < j j j l l / / z j R R ~ L l j < > > < l R j $                                         ",
"                                      + L < > > > > j z L ; = ; = = = L h > > : > l R h @                                       ",
"                                    $ L j > > - > > h 2 ; < < 1 < 4 < = = = t > > > j h +                                       ",
"                                    . j < : > : = & = < 4 w.t.c.c.c.7.4 4 < = = : : < j h @                                     ",
"                                  $ h j > < t = < < 4 8.t.m.n.n.n.n.n.g.g.7.5 < = : < j h @                                     ",
"                                  . t < < t = 5 8.t.w.m.n.n.n.n.n.n.m.m.m.m.g.7.1 = : > j K @                                   ",
"                                  . > : > = < 7.m.m.m.m.n.n.n.n.n.n.m.m.m.m.m.m.7.1 = : < h @                                   ",
"                                @ - : < t = 4 g.m.m.m.m.m.m.m.m.n.n.n.n.m.m.m.m.m.7.< = : < K @                                 ",
"                                . - < t = 4 7.x.m.m.m.m.m.m.m.m.n.n.n.n.m.m.m.m.m.g.< = : > h @                                 ",
"                                . - t ; 5 7.n.n.m.m.m.m.m.m.m.m.n.n.n.n.m.m.m.m.m.x./ > * : < K @                               ",
"                                . - ; 1 7.n.n.n.m.m.m.m.m.m.m.m.n.n.n.n.m.m.m.m.m.x. .> * : < h .                               ",
"                                . - & < x.x.m.m.m.m.m.m.m.m.m.m.n.n.n.n.n.n.n.n.n.n.g.1 = t > t @                               ",
"                                . - = < a.z.m.m.m.m.m.m.m.m.m.m.n.n.n.n.n.n.c.n.z.z.x.P > = : < t @                             ",
"                                . : & 4 a.z.g.g.z.z.z.m.m.m.m.m.n.n.n.c.c.c.+.h.g.g.g./ < * : < h .                             ",
"                                . : & < a.B B B c B o.x.m.m.m.m.n.x.g.} c c f c B c c / < * : : h .                             ",
"                                . - & < [ N N ~ x f f B +.c.m.m.x.o.} c f f f } E c B 7.< & : < h .                             ",
"                                . - & 4 ~ ~ B C B B u i / +.m.m.x.o.E r e e u ) / } ] / > = : > h .                             ",
"                                . & : L Z B 6 N 8 8 N N p } m.m.c.` V 8 6 6 N V C / P P 3 ; : - = & @                           ",
"                          @ . . & & - ; e 6 6 6 6 8 B V B } y.v.e.C V N 6 6 V V V B 2 R R > * & : < @                           ",
"                          . a d > & > e e 6 N N 8 N V V ; f B r.B f N V N 0 N V V y e ; ; : & & < -.&.@                         ",
"                          . d f < & 4 ~ } a N C V V C T r ; c r.c f 2 B V C C C [ i u e ; : = & < :.:..                         ",
"                          o d f d 4 5.F t.t.+.} X.X.h.| u ; 6.p.B f Z ` +.c.n.m.x.c.X.E Z < = 1 *.>.;.o                         ",
"                          . d f f f g.+.F u.h.h.z.x.z.t.2 d y.v.y.c Z t.c.n.n.n.n.n.t.F w./ 5 *.>.>.*.@                         ",
"                          @ d f f x g.g.D D F F y.x.c.D ; c y.v.c.B < Z u.c.h.h.c.y.F D  .o.:.>.>.;.O                           ",
"                            + d N x g.m.m.u.h.d.F F D Z T r.v.v.v.u. .D F F F F F F c.c.o.] >.>.>.;.O                           ",
"                            . d f B c.m.m.m.m.m.m.c.c.` p y.v.v.v.v.p.m.h.m.m.h.x.x.n.x.] p :.>.>.&.@                           ",
"                            @ s f f g.m.m.m.m.m.m.n.c.X.c y.v.v.v.y.y.m.m.m.m.m.n.n.n.x.` i :.>.;.O                             ",
"                              @ d x o.x.z.n.n.n.m.m.x. .c u.p.y.r.B c h.n.n.n.n.n.n.n.h.p ;.>.>.&.$                             ",
"                              . s f ` h.n.n.n.n.m.m.x.B c c c c c c c h.n.n.n.n.n.n.x.o.u *.>.;.O                               ",
"                              @ . . r } x.z.n.n.m.m.m.y.` c x d c P o.x.n.n.n.n.x.x.o.` r 4 =.=.@                               ",
"                                    $ R o.x.n.n.m.m.m.h.` i R u e u T x.n.n.n.n.z.z.o.P < & . @                                 ",
"                                      @ / x.z.x.c.x.h.X.u r u e r r i t.z.n.n.n.x.#.] < * .                                     ",
"                                      . P #.g.2.o.` i u r e r t r e u ) c.v.x.z.z.#.] < & .                                     ",
"                              @ . @   O R ] o.] ` p u e u y Y a.i u y i / o.o.g.#.] P < & .                                     ",
"                            # - : : X v 5 U ] ` i u T i A A G G S G A g p P  .g.] ` 1 * - .                                     ",
"                          # v , : : > b 1 I  . .] ] a.z.1.1.1.$.1.4.4.4.` p ` o. ./ < & - .                                     ",
"                          X v , : : > y y 1 U  . . .z.z.k.=.$.$.%.4.z.z.x.o.` ] ` r : = - @                                     ",
"                        % v M , : : : y e < I ] U #.z.x.z.o.p i ` =.z.n.h.` u ` P 1 = - @                                       ",
"                    $ X v M M , : : : y r e 1 r i ] z.x.z.2.a.2.o.k.z.z.| u u P r < q @                                         ",
"                    X v M M M n , : , R r e < w r i ] x.x.z.m.x.z.m.m.k.i r r r 1 w .                                           ",
"                  % v M M M M n , : , I u r y 1 e r r ] z.x.x.x.x.m.z.] r r e < r r .                                           ",
"                % v M M M M M M 1 : < U U u r w < e e i ] x.x.z.x.c.] t r e e < r R .                                           ",
"              % v M M M M M M M b < < U  .u r r y < < e u ` ] ] ` ` u r e < < r r P o                                           ",
"            # v M M M M M M M M m , y U o.U r r r e e 1 < r u r r r e e < e e r u P < . . . . . . .             @ . . . .       ",
"            X b M M M M M M M M M , < T o.U u r r r e e e , > < , < , < e r r r ` ` < : - - : : : - . . . . . . - : : : - . .   ",
"            . n M M M M M M M M M b 3 / o.U i r e r r e e e e r e e e e r e r u ` ` < : : : : : : : : : - : : : : : : : : : :   ",
"            X b M M M M M M M M M M 7 /  . .U i r r r e r r e r r r r r r r u /  .` < : : : : : : : : : : : : : : : : : : : :   ",
"            . , M M M M M M M M M M m 7 T ]  .T u r e r r e r r r e r r r u ` `  ./ < : : : : : > : : : : : : , , , , , , , ,   ",
"            X , M M M M M M M M M M M m T  . . .) u u r r w r e r r u u / `  . . ./ 1 > : : , : : : : : : : : , b n M M n M M   ",
"      # X X n M M M M M M M M M M M M M M =. . .] ` P u u u u u r u ` ` ]  .]  .} ] W 4 : : : : : : : : : , , b M M M M M M M   ",
"  @ . v n n M M M M M M M M M M M M M M M m |  . . . .` ` ` T ` ` ` ]  . . .]  .} } E e , : : : : : : : , b M M M M M M M M M   "
};
