/* XPM */
static char *_a9919f6b5d349a6c548a71b113822e63XeSfqGHVp8AvCJS[] = {
/* columns rows colors chars-per-pixel */
"64 64 162 2 ",
"   c None",
".  c #0B0B0C",
"X  c #130D0F",
"o  c #0F0F10",
"O  c #110F11",
"+  c #0F1010",
"@  c #121213",
"#  c #181516",
"$  c #171718",
"%  c #1D1618",
"&  c #1C1C1C",
"*  c #232323",
"=  c #24272A",
"-  c #26292D",
";  c #2B2C2D",
":  c #2F2334",
">  c #2A2D31",
",  c #322537",
"<  c #342739",
"1  c #38273A",
"2  c #36293B",
"3  c #392B3E",
"4  c #2F3136",
"5  c #343435",
"6  c #3A3A3A",
"7  c #3C2F41",
"8  c #3E3444",
"9  c #422F42",
"0  c #453D4B",
"q  c #3F4147",
"w  c #454545",
"e  c gray30",
"r  c #55495B",
"t  c #594C5E",
"y  c #545455",
"u  c #5C5C5C",
"i  c #5B4E61",
"p  c #5D5163",
"a  c #5A5E65",
"s  c #604F62",
"d  c #615567",
"f  c #635B67",
"g  c #635669",
"h  c #64596A",
"j  c #665772",
"k  c #675874",
"l  c #6A5A76",
"z  c #6E5E7B",
"x  c #725573",
"c  c #5B6067",
"v  c #5D6269",
"b  c #626262",
"n  c #61666C",
"m  c #63686F",
"M  c #6C6C6C",
"N  c #646A70",
"B  c #6F607C",
"V  c #71627E",
"C  c #737476",
"Z  c #C54B72",
"A  c #CB4E76",
"S  c #CE4F78",
"D  c #CE5178",
"F  c #D4517A",
"G  c #746382",
"H  c #786A83",
"J  c #776489",
"K  c #7B688A",
"L  c #7E7A80",
"P  c #7F6794",
"I  c #905F8E",
"U  c #92608F",
"Y  c #817D83",
"T  c #946291",
"R  c #8C7E96",
"E  c #87709A",
"W  c #8A739D",
"Q  c #A17EA4",
"!  c gray52",
"~  c #89808F",
"^  c #8C8B8C",
"/  c #8D8E96",
"(  c #918B97",
")  c #8E9097",
"_  c #8F9299",
"`  c #939394",
"'  c #95979F",
"]  c #96969F",
"[  c #95959F",
"{  c #94959D",
"}  c gray62",
"|  c #9F9F9F",
" . c #9797A1",
".. c #9797A0",
"X. c #9D97A1",
"o. c #9798A1",
"O. c #9798A0",
"+. c #9899A2",
"@. c #9898A2",
"#. c #989AA2",
"$. c #999BA3",
"%. c #999AA3",
"&. c #9A9BA4",
"*. c #9A99A4",
"=. c #9A9CA4",
"-. c #9D9DA7",
";. c #9D9EA7",
":. c #9A9BA4",
">. c #9F9FA9",
",. c #9E9DA8",
"<. c #9E9FA8",
"1. c #A481A7",
"2. c #A482A8",
"3. c #AC93AD",
"4. c #AD93AE",
"5. c #AA91AC",
"6. c #A49AAA",
"7. c #A696B3",
"8. c #AF96B0",
"9. c #A798B5",
"0. c #AA9BB7",
"q. c #B096B1",
"w. c #B096B1",
"e. c #B49AB5",
"r. c #B49AB5",
"t. c #BE97BF",
"y. c #BE98BF",
"u. c #A0A0AA",
"i. c #ACACAC",
"p. c #B6ABBC",
"a. c gray70",
"s. c gray71",
"d. c gray73",
"f. c #BF9BC1",
"g. c #C09AC2",
"h. c #C1BAC4",
"j. c #CEBAD4",
"k. c #CEBCD6",
"l. c #CEBDD6",
"z. c #CFBDD7",
"x. c #CDBBD5",
"c. c #CFBED8",
"v. c #D4BBD8",
"b. c #D5BDD9",
"n. c #D8BFDC",
"m. c #D8BFDC",
"M. c #D2C0DA",
"N. c #D2C1DB",
"B. c #D0C0D9",
"V. c #D3C3DC",
"C. c #D4C2DC",
"Z. c #D4C3DC",
"A. c #D6C4DE",
"S. c #D6C5DE",
"D. c #D6C5DF",
"F. c #D5C4DD",
"G. c #D5C4DD",
"H. c #DAC1DE",
"J. c #D9CDDF",
"K. c #D8C6E0",
"L. c #D8C6E0",
"P. c #DBCFE0",
/* pixels */
"                                                                                                                                ",
"                                                                                                                                ",
"                                                                                                                                ",
"                                                                                                                                ",
"                                                                                                                                ",
"                                                                                                                                ",
"                                                            @ . . . . . @                                                       ",
"                                                  @ . . . @ c c v c v v a . @                                                   ",
"                                                $ _ v c v v 3 2 < 2 < 2 2 < a o                                                 ",
"                                              @ c v 3 2 v o.{ m n v 8 v v 2 2 : @                                               ",
"                                            @ , 2 v o.o.o.#.o.=.=.=.o.%...m v 2 : @                                             ",
"                                          @ , v v #.#.o.7 7 m o.o.o.o.o.m .. .v 2 : @                                           ",
"                                        @ < v v N N #.#.v v 7 m N N N v 2 3 n ..[ 2 o                                           ",
"                                      @ < v n v v N #.#.N n { { o.{ v v 2 , , 2 v [ v @                                         ",
"                                      + / 2 < < < 2 v N _ > > > > > > _ v , < , 2 n { v @                                       ",
"                                    $ _ v < < : < 4 v > > < 2 3 2 2 3 > - > a 4 < 2 v v +                                       ",
"                                    . v 2 , < : - = ; 2 7 k.M.N.c.L.l.7 7 2 > - 4 < 3 v c @                                     ",
"                                  # a v < 2 a > 2 2 8 x.M.L.L.L.L.L.L.N.N.l.7 2 - : < v v @                                     ",
"                                  . a 2 < a > 8 z.b.C.L.L.L.L.L.L.L.L.L.L.L.N.l.7 - , < v _ @                                   ",
"                                  . < , < - 2 x.L.L.D.L.L.L.L.L.L.L.L.L.L.L.L.L.x.7 - , 2 c @                                   ",
"                                + : , 2 a - 8 N.L.L.L.L.L.L.L.L.L.L.L.L.L.L.L.L.L.x.2 - < 2 ) @                                 ",
"                                . , 2 a > 7 k.L.L.L.L.L.L.L.L.L.L.L.L.L.L.L.L.L.L.b.7 - : < c +                                 ",
"                                . : c > 7 k.L.L.L.L.L.L.L.L.L.L.L.L.L.L.L.L.L.L.L.L..., - , 2 ) @                               ",
"                                . : - 2 k.L.L.L.L.L.L.L.L.L.L.L.L.L.L.L.L.L.L.L.L.L.o.2 - < < c .                               ",
"                                . : = 2 G.L.L.L.L.L.L.L.L.L.L.L.L.L.L.L.L.L.L.L.L.L.M.3 - c 2 c +                               ",
"                                . : - 2 N.L.L.L.L.L.L.L.L.L.L.L.L.L.L.L.L.L.L.L.L.D.D.] 2 - , 2 a @                             ",
"                                . : - 7 N.D.G.N.D.D.D.L.L.L.L.L.L.L.L.L.N.c.,.N.C.C.M.#.2 - < < v .                             ",
"                                . : - 2 k.G G G V G -.G.D.L.L.L.L.L.N.o.G G z G G V V o.< = , < v .                             ",
"                                . : - <  .B G ..z z V G ,.D.L.L.G.,.=.B z z z o.#.V V x.2 = , 2 c .                             ",
"                                . : - 7 o. .J J J G p d o.,.L.P.D.,.o.p i p p o.#.#.:.#.< - , < a .                             ",
"                                o & $ $ + @ @ @ O @ # * = = * * = * * & * & * * * & * * * M f : - = @                           ",
"                          @ . M & + + + @ @ @ @ @ @ + + + # & & # . + + + o o o + + . + + $ ` = , 2 @                           ",
"                          . j ~ u . * e $ b $ X . . X . X 0 G v.0 + * y & u % . . . + . . u C = 2 3.3.@                         ",
"                          . l V Y 6 5 ^ u | y & + . . X 5 6 z v.f 6 5 ` b ` e + . @ . # 6 C 4 - 3 q.q..                         ",
"                          o l z l Y w 5 d.e a.y # . . = ^ y j.m.R ` ; w a.u ` 6 . . O 6 { 3 - 3 3.e.q.o                         ",
"                          . l z B B p.w * s.; ^ 6 . 4 p.> z m.H.z.V R ; ; | y i.@ . w K v.#.8 3.e.e.5.#                         ",
"                          @ l z B V M.h.* ; * ; * * u.W > V m.H.m.G w H ; ; ; ; * * 6.E %.:.8.r.e.q.@                           ",
"                            o z z V Z.S.P.P.P.P.0.0.E E ] v.m.H.H.b.%.E 7.9.9.8.9.0.C.C.-.#.r.r.e.q..                           ",
"                            . l z V Z.S.L.L.L.L.H.C.C.&.g m.H.H.H.H.H.D.D.D.S.S.C.D.L.D.=.h r.r.e.5.#                           ",
"                            @ k z V S.H.L.L.L.D.D.D.D.-.V m.H.m.L.b.m.H.J.S.S.S.L.L.L.L.#.h r.e.q.O                             ",
"                              O l V -.D.D.H.L.L.L.L.D.-.V b.m.m.v.G G C.L.L.L.L.L.L.L.M.h q.e.e.5.$                             ",
"                              . k l #.S.D.D.L.L.L.L.D.G V V V V z V V C.L.L.L.L.L.L.G.-.d 3.e.q.O                               ",
"                              @ . . p =.D.L.L.L.L.L.L.C.#.z V l z ] -.D.L.L.L.L.D.G.<.:.p 3 5.5.#                               ",
"                                    $ { u.S.L.L.L.L.L.C.&.g { d p d #.H.L.L.L.L.L.G.;.{ 3 = . @                                 ",
"                                      @ ] F.D.D.D.D.C.-.d i d p i p d v.L.L.L.L.D.<.#.3 - .                                     ",
"                                      . ] <.V.<.-.#.g d p i d d i p d @.N.D.D.L.G.;.#.2 * .                                     ",
"                              # . @   X ' #.<.=.#.d d i d s ] k.g d s d o.,.,.G.<.#.' 2 = .                                     ",
"                            $ : : : . Z 8 o.#.} d d @.g I I T T T T T x d o.=.G.;.#.3 - > .                                     ",
"                          % Z 1 , , < A 3 { :.:.#.:.V.M.g.y.y.1.y.g.g.g.%.h #.-.=.] 2 = : .                                     ",
"                          O Z 1 < , < s i 3 o.:.=.-.D.L.D.-.1.Q 1.g.D.D.D.-.#.=.#.p 2 - : @                                     ",
"                        % Z S 1 , , , i i 3 ] #.:.-.D.S.D.-.h h #.6.D.D.D.#.d #.] 3 - , @                                       ",
"                    @ O Z F F 1 , , < i i i 3 p d #.D.L.D.u.B.u.<.S.L.D.#.d p ] p 2 r @                                         ",
"                    X Z F F F S 1 < 2 { p i 2 i p d %.D.D.D.L.S.D.S.L.S.d p p p 3 t .                                           ",
"                  % A F F F F D 1 , 2 ] d p i 3 t p d =.D.D.H.D.S.S.D.:.p p p 2 p p .                                           ",
"                % Z F F F F F F 1 < 2 o.o.p p t 3 p i d #.D.D.D.D.D.#.d p i i 2 p { .                                           ",
"              % Z F F F F F F F A 1 2 ] :.d p p t 3 2 t d #.&.#.#.#.d p i 3 2 i p  ..                                           ",
"            # Z F F F F F F F F D 1 t :.=.] d p p i i 3 2 i d p p p i t 3 i i p d  .2 . . . . . . .             @ . . . .       ",
"            X A F F F F F F F F F 1 3 ] =.=.p p p i i i i 2 1 2 2 < 2 2 i p i d o.o.2 , : : , , , : . . . . . . : : , , : . .   ",
"            . A F F F F F F F F F A 3 ' =.} d p p p p p i i i i i t p i i d i d %.%.2 , : , , , , , , , : : , , , , , , , , :   ",
"            X A F F F F F F F F F D 9 ] =.=.] d p i i p p p s i p p p p i i d #.%.o.2 , , , , , , , , , , , , , , , , , , , ,   ",
"            . 1 F F F F F F F F F F D 9 ] =.-.] d i p i d i i i i d p p d d ] =.=.%.2 , , , 1 , , , , , , , , 1 1 1 1 1 1 1 1   ",
"            X 1 F F F F F F F F F F F F &.=.=.=.#.d d p i i i d i t d g ] #.=.=.=.o.7 < , , , , , , , , , , , 1 A S F F S F F   ",
"      $ X X S F F F F F F F F F F F F F F &.=.=.#.#.@.d d d d d d d ] =.=.=.=.=.=.=...7 , , , , , , , , , 1 1 A F F F F F F F   ",
"  @ X Z S S F F F F F F F F F F F F F F F F &.=.=.-.#.#.#.] ] #.#.#.=.=.=.=.=.=.=.%. .i 1 , , , , , , , 1 A F F F F F F F F F   "
};
